<svg width="46" height="159" viewBox="0 0 46 159" fill="none" xmlns="http://www.w3.org/2000/svg">
<path d="M43.75 151.172H22.6562C21.5777 151.172 20.7031 150.297 20.7031 149.219C20.7031 148.14 21.5777 147.266 22.6562 147.266H43.75C44.8289 147.266 45.7031 148.14 45.7031 149.219C45.7031 150.297 44.8289 151.172 43.75 151.172Z" fill="white"/>
<path d="M39.0625 158.203H27.3438C26.2652 158.203 25.3906 157.329 25.3906 156.25C25.3906 155.171 26.2652 154.297 27.3438 154.297H39.0625C40.1414 154.297 41.0156 155.171 41.0156 156.25C41.0156 157.329 40.1414 158.203 39.0625 158.203Z" fill="white"/>
<path d="M9.375 18.75C8.99805 18.75 8.66289 18.5094 8.54219 18.1523C6.85586 13.1563 5.59375 11.8941 0.597656 10.2078C0.240625 10.0871 0 9.75195 0 9.375C0 8.99805 0.240625 8.66289 0.597656 8.54219C5.59375 6.85625 6.85586 5.59375 8.54219 0.597656C8.66289 0.240625 8.99805 0 9.375 0C9.75195 0 10.0871 0.240625 10.2078 0.597656C11.8941 5.59375 13.1563 6.85586 18.1523 8.54219C18.5094 8.66289 18.75 8.99805 18.75 9.375C18.75 9.75195 18.5094 10.0871 18.1523 10.2078C13.1563 11.8941 11.8941 13.1563 10.2078 18.1523C10.0871 18.5094 9.75195 18.75 9.375 18.75Z" fill="white"/>
</svg>
