<svg width="25" height="25" viewBox="0 0 25 25" fill="none" xmlns="http://www.w3.org/2000/svg">
<path d="M12.5 24.9996C11.9973 24.9996 11.5504 24.6789 11.3898 24.2027C9.14141 17.541 7.45859 15.8582 0.797266 13.6101C0.320703 13.4492 0 13.0023 0 12.4996C0 11.9969 0.320704 11.55 0.796875 11.3894C7.4582 9.1414 9.14102 7.45819 11.3895 0.796866C11.5504 0.320694 11.9969 0 12.4996 0C13.0023 0 13.4492 0.320694 13.6098 0.796866C15.8582 7.45819 17.541 9.1414 24.2023 11.3894C24.6785 11.5504 24.9996 11.9969 24.9996 12.4996C24.9996 13.0023 24.6789 13.4492 24.2023 13.6101C17.541 15.8582 15.8582 17.541 13.6098 24.2027C13.4496 24.6789 13.0027 24.9996 12.5 24.9996Z" fill="#6F6F6F"/>
</svg>
