<svg width="20" height="20" viewBox="0 0 20 20" fill="none" xmlns="http://www.w3.org/2000/svg">
<path d="M9.96094 19.9219C9.56055 19.9219 9.20391 19.6664 9.07578 19.2871C7.28438 13.9785 5.94297 12.6375 0.634766 10.8461C0.255859 10.7176 0 10.3617 0 9.96095C0 9.56056 0.255859 9.2043 0.634766 9.07618C5.94336 7.28477 7.28438 5.94337 9.07578 0.63516C9.20391 0.255472 9.56016 0 9.96094 0C10.3617 0 10.7172 0.255472 10.8461 0.63516C12.6375 5.94337 13.9789 7.28438 19.2871 9.07618C19.666 9.2043 19.9219 9.56056 19.9219 9.96095C19.9219 10.3617 19.666 10.7176 19.2871 10.8461C13.9785 12.6379 12.6375 13.9785 10.8461 19.2871C10.7172 19.6664 10.3613 19.9219 9.96094 19.9219Z" fill="#6F6F6F"/>
</svg>
